# xmcd
#
# Track frame offsets:
#	150
#	10284
#	25077
#	34599
#	48654
#	61126
#	76467
#	88902
#	108538
#
# Disc length: 1648 seconds
#
# Revision: 1
# Processed by: cddbd v1.5.2PL0 Copyright (c) Steve Scherf et al.
# Submitted via: audiograbber 1.83.01
#
DISCID=6c066e09
DTITLE=Glenn Alan - Old Guitars And Barrooms
DYEAR=2005
DGENRE=Country
TTITLE0=Hey Pretty Lady
TTITLE1=Mixed Emotions
TTITLE2=Country Train
TTITLE3=Son Of A Working Man
TTITLE4=A Place Called Forever
TTITLE5=You´re Fallin´ In Love
TTITLE6=Old Guitars And Barrooms
TTITLE7=Everyday Grind
TTITLE8=Perfect Love
EXTD=
EXTT0=
EXTT1=
EXTT2=
EXTT3=
EXTT4=
EXTT5=
EXTT6=
EXTT7=
EXTT8=
PLAYORDER=
